<svg xmlns="http://www.w3.org/2000/svg" viewBox="0 0 500 500">
  <!-- Shelf -->
  <rect x="0" y="430" width="500" height="6" fill="#1B3252"/>
  <rect x="0" y="440" width="500" height="3" fill="#1B3252"/>
  <!-- Books -->
  <rect x="30" y="320" width="32" height="110" fill="#1B3252"/>
  <rect x="70" y="280" width="28" height="150" fill="#34C3A0"/>
  <rect x="105" y="300" width="35" height="130" fill="#B08A3E"/>
  <rect x="148" y="260" width="30" height="170" fill="#1B3252"/>
  <rect x="185" y="310" width="38" height="120" fill="#239C80"/>
  <rect x="230" y="290" width="33" height="140" fill="#B08A3E"/>
  <rect x="270" y="260" width="35" height="170" fill="#1B3252"/>
  <rect x="312" y="300" width="30" height="130" fill="#34C3A0"/>
  <rect x="350" y="280" width="36" height="150" fill="#1B3252"/>
  <rect x="393" y="310" width="32" height="120" fill="#B08A3E"/>
  <rect x="432" y="290" width="38" height="140" fill="#239C80"/>
  <!-- Top caps -->
  <rect x="30" y="320" width="32" height="4" fill="#0E1F38"/>
  <rect x="70" y="280" width="28" height="4" fill="#239C80"/>
  <rect x="105" y="300" width="35" height="4" fill="#8B6A2E"/>
  <rect x="148" y="260" width="30" height="4" fill="#0E1F38"/>
  <rect x="185" y="310" width="38" height="4" fill="#1B3252"/>
  <rect x="230" y="290" width="33" height="4" fill="#8B6A2E"/>
  <rect x="270" y="260" width="35" height="4" fill="#0E1F38"/>
  <rect x="312" y="300" width="30" height="4" fill="#239C80"/>
  <rect x="350" y="280" width="36" height="4" fill="#0E1F38"/>
  <rect x="393" y="310" width="32" height="4" fill="#8B6A2E"/>
  <rect x="432" y="290" width="38" height="4" fill="#1B3252"/>
</svg>
