<svg xmlns="http://www.w3.org/2000/svg" viewBox="0 0 500 500">
  <path d="M 150 100 L 350 100 A 150 150 0 0 1 350 400 L 150 400 A 150 150 0 0 1 150 100 Z" fill="#B08A3E"/>
  <path d="M 155 115 L 345 115 A 135 135 0 0 1 345 385 L 155 385 A 135 135 0 0 1 155 115 Z" fill="none" stroke="#1B3252" stroke-width="1.5"/>
  <path d="M 160 130 L 340 130 A 120 120 0 0 1 340 370 L 160 370 A 120 120 0 0 1 160 130 Z" fill="none" stroke="#1B3252" stroke-width="1.5"/>
  <path d="M 165 145 L 335 145 A 105 105 0 0 1 335 355 L 165 355 A 105 105 0 0 1 165 145 Z" fill="none" stroke="#1B3252" stroke-width="1.5"/>
  <path d="M 170 160 L 330 160 A 90 90 0 0 1 330 340 L 170 340 A 90 90 0 0 1 170 160 Z" fill="none" stroke="#1B3252" stroke-width="1.5"/>
  <path d="M 175 175 L 325 175 A 75 75 0 0 1 325 325 L 175 325 A 75 75 0 0 1 175 175 Z" fill="#34C3A0"/>
  <rect x="148" y="100" width="4" height="300" fill="#FAF7F2"/>
</svg>
