<svg xmlns="http://www.w3.org/2000/svg" viewBox="0 0 500 500">
  <g transform="rotate(-25 250 250)">
    <ellipse cx="250" cy="170" rx="85" ry="105" fill="none" stroke="#1B3252" stroke-width="12"/>
    <g stroke="#1B3252" stroke-width="1.5">
      <line x1="175" y1="135" x2="325" y2="135"/>
      <line x1="170" y1="160" x2="330" y2="160"/>
      <line x1="168" y1="190" x2="332" y2="190"/>
      <line x1="170" y1="220" x2="330" y2="220"/>
      <line x1="180" y1="245" x2="320" y2="245"/>
      <line x1="200" y1="110" x2="200" y2="260"/>
      <line x1="225" y1="105" x2="225" y2="260"/>
      <line x1="250" y1="100" x2="250" y2="265"/>
      <line x1="275" y1="105" x2="275" y2="260"/>
      <line x1="300" y1="110" x2="300" y2="260"/>
    </g>
    <path d="M 220 265 L 280 265 L 270 310 L 230 310 Z" fill="#1B3252"/>
    <rect x="235" y="310" width="30" height="140" fill="#1B3252"/>
    <g stroke="#B08A3E" stroke-width="2">
      <line x1="235" y1="335" x2="265" y2="335"/>
      <line x1="235" y1="355" x2="265" y2="355"/>
      <line x1="235" y1="375" x2="265" y2="375"/>
      <line x1="235" y1="395" x2="265" y2="395"/>
      <line x1="235" y1="415" x2="265" y2="415"/>
      <line x1="235" y1="435" x2="265" y2="435"/>
    </g>
  </g>
  <circle cx="400" cy="390" r="38" fill="#34C3A0"/>
  <path d="M 370 375 Q 400 360 430 375" fill="none" stroke="#FAF7F2" stroke-width="2"/>
  <path d="M 370 405 Q 400 420 430 405" fill="none" stroke="#FAF7F2" stroke-width="2"/>
</svg>
