<svg xmlns="http://www.w3.org/2000/svg" viewBox="0 0 500 500">
  <!-- Ochre rays from center -->
  <g fill="#B08A3E">
    <path d="M 250 250 L 245 30 L 255 30 Z"/>
    <path d="M 250 250 L 305 40 L 315 50 Z"/>
    <path d="M 250 250 L 360 85 L 365 95 Z"/>
    <path d="M 250 250 L 425 135 L 425 145 Z"/>
    <path d="M 250 250 L 470 205 L 470 215 Z"/>
    <path d="M 250 250 L 470 285 L 470 295 Z"/>
    <path d="M 250 250 L 425 355 L 425 365 Z"/>
    <path d="M 250 250 L 360 410 L 355 400 Z"/>
    <path d="M 250 250 L 255 470 L 245 470 Z"/>
    <path d="M 250 250 L 200 460 L 190 455 Z"/>
    <path d="M 250 250 L 145 415 L 140 405 Z"/>
    <path d="M 250 250 L 80 370 L 80 360 Z"/>
    <path d="M 250 250 L 30 295 L 30 285 Z"/>
    <path d="M 250 250 L 30 215 L 30 205 Z"/>
    <path d="M 250 250 L 80 140 L 80 130 Z"/>
    <path d="M 250 250 L 145 85 L 140 95 Z"/>
  </g>
  <!-- Central disk -->
  <circle cx="250" cy="250" r="85" fill="#1B3252"/>
  <circle cx="250" cy="250" r="65" fill="#B08A3E"/>
  <circle cx="250" cy="250" r="22" fill="#1B3252"/>
</svg>
