<svg xmlns="http://www.w3.org/2000/svg" viewBox="0 0 500 500">
  <g fill="#1B3252">
    <rect x="100" y="280" width="300" height="180"/>
    <rect x="70" y="220" width="60" height="240"/>
    <rect x="370" y="220" width="60" height="240"/>
    <rect x="220" y="180" width="60" height="280"/>
    <rect x="130" y="265" width="15" height="15"/><rect x="160" y="265" width="15" height="15"/>
    <rect x="190" y="265" width="15" height="15"/><rect x="295" y="265" width="15" height="15"/>
    <rect x="325" y="265" width="15" height="15"/><rect x="355" y="265" width="15" height="15"/>
    <rect x="70" y="205" width="15" height="15"/><rect x="95" y="205" width="15" height="15"/>
    <rect x="115" y="205" width="15" height="15"/>
    <rect x="370" y="205" width="15" height="15"/><rect x="395" y="205" width="15" height="15"/>
    <rect x="415" y="205" width="15" height="15"/>
    <rect x="220" y="165" width="15" height="15"/><rect x="243" y="165" width="15" height="15"/>
    <rect x="265" y="165" width="15" height="15"/>
  </g>
  <g fill="#FAF7F2">
    <rect x="90" y="260" width="8" height="14"/><rect x="115" y="260" width="8" height="14"/>
    <rect x="230" y="225" width="8" height="16"/><rect x="262" y="225" width="8" height="16"/>
    <rect x="385" y="260" width="8" height="14"/><rect x="410" y="260" width="8" height="14"/>
    <rect x="150" y="330" width="10" height="20"/><rect x="190" y="330" width="10" height="20"/>
    <rect x="300" y="330" width="10" height="20"/><rect x="340" y="330" width="10" height="20"/>
  </g>
  <path d="M 225 460 L 225 400 Q 225 385 245 385 L 255 385 Q 275 385 275 400 L 275 460 Z" fill="#34C3A0"/>
  <line x1="250" y1="165" x2="250" y2="120" stroke="#1B3252" stroke-width="3"/>
  <path d="M 250 125 L 285 130 L 280 140 L 285 150 L 250 145 Z" fill="#B08A3E"/>
  <rect x="0" y="460" width="500" height="6" fill="#1B3252"/>
</svg>
