<svg xmlns="http://www.w3.org/2000/svg" viewBox="0 0 500 500">
  <!-- Left branch stem -->
  <path d="M 250 430 Q 150 420 110 300 Q 100 180 180 120 Q 220 100 240 95 L 245 102 Q 220 112 190 140 Q 130 200 140 300 Q 150 400 250 420 Z" fill="#1B3252"/>
  <!-- Right branch stem -->
  <path d="M 250 430 Q 350 420 390 300 Q 400 180 320 120 Q 280 100 260 95 L 255 102 Q 280 112 310 140 Q 370 200 360 300 Q 350 400 250 420 Z" fill="#1B3252"/>
  <!-- Left leaves -->
  <g fill="#1B3252">
    <ellipse cx="118" cy="155" rx="22" ry="11" transform="rotate(-30 118 155)"/>
    <ellipse cx="125" cy="195" rx="22" ry="11" transform="rotate(-45 125 195)"/>
    <ellipse cx="120" cy="235" rx="22" ry="11" transform="rotate(-55 120 235)"/>
    <ellipse cx="130" cy="280" rx="22" ry="11" transform="rotate(-70 130 280)"/>
    <ellipse cx="152" cy="325" rx="22" ry="11" transform="rotate(-85 152 325)"/>
    <ellipse cx="180" cy="365" rx="22" ry="11" transform="rotate(-100 180 365)"/>
    <ellipse cx="215" cy="395" rx="22" ry="11" transform="rotate(-120 215 395)"/>
  </g>
  <!-- Right leaves -->
  <g fill="#1B3252">
    <ellipse cx="382" cy="155" rx="22" ry="11" transform="rotate(30 382 155)"/>
    <ellipse cx="375" cy="195" rx="22" ry="11" transform="rotate(45 375 195)"/>
    <ellipse cx="380" cy="235" rx="22" ry="11" transform="rotate(55 380 235)"/>
    <ellipse cx="370" cy="280" rx="22" ry="11" transform="rotate(70 370 280)"/>
    <ellipse cx="348" cy="325" rx="22" ry="11" transform="rotate(85 348 325)"/>
    <ellipse cx="320" cy="365" rx="22" ry="11" transform="rotate(100 320 365)"/>
    <ellipse cx="285" cy="395" rx="22" ry="11" transform="rotate(120 285 395)"/>
  </g>
  <!-- Center ochre medallion -->
  <circle cx="250" cy="250" r="42" fill="#B08A3E"/>
  <circle cx="250" cy="250" r="22" fill="#1B3252"/>
</svg>
