<svg xmlns="http://www.w3.org/2000/svg" viewBox="0 0 500 500">
  <rect x="90" y="380" width="320" height="40" fill="#1B3252"/>
  <rect x="130" y="280" width="240" height="100" fill="#1B3252"/>
  <path d="M 100 280 L 250 230 L 400 280 L 380 270 L 250 240 L 120 270 Z" fill="#B08A3E"/>
  <path d="M 100 280 L 400 280 L 385 290 L 115 290 Z" fill="#1B3252"/>
  <path d="M 145 230 L 250 200 L 355 230 L 340 220 L 250 205 L 160 220 Z" fill="#B08A3E"/>
  <path d="M 145 230 L 355 230 L 340 240 L 160 240 Z" fill="#1B3252"/>
  <path d="M 185 200 L 250 175 L 315 200 L 305 190 L 250 180 L 195 190 Z" fill="#B08A3E"/>
  <path d="M 240 175 L 250 130 L 260 175 Z" fill="#B08A3E"/>
  <circle cx="250" cy="130" r="5" fill="#1B3252"/>
  <line x1="250" y1="130" x2="250" y2="105" stroke="#1B3252" stroke-width="3"/>
  <circle cx="250" cy="103" r="4" fill="#B08A3E"/>
  <path d="M 225 420 L 225 350 Q 225 335 245 335 L 255 335 Q 275 335 275 350 L 275 420 Z" fill="#34C3A0"/>
  <rect x="170" y="310" width="15" height="30" fill="#34C3A0"/>
  <rect x="315" y="310" width="15" height="30" fill="#34C3A0"/>
  <rect x="215" y="420" width="70" height="10" fill="#1B3252"/>
  <rect x="205" y="430" width="90" height="10" fill="#1B3252"/>
  <rect x="0" y="460" width="500" height="6" fill="#1B3252"/>
</svg>
