<svg xmlns="http://www.w3.org/2000/svg" viewBox="0 0 500 500">
  <!-- Moon -->
  <circle cx="410" cy="130" r="30" fill="#B08A3E" opacity="0.75"/>
  <!-- Distant peaks -->
  <path d="M 0 350 L 80 280 L 150 340 L 220 260 L 300 350 L 380 250 L 450 340 L 500 290 L 500 500 L 0 500 Z" fill="#34C3A0" opacity="0.5"/>
  <!-- Middle peaks -->
  <path d="M 0 410 L 60 340 L 130 400 L 200 330 L 280 410 L 350 320 L 420 390 L 500 360 L 500 500 L 0 500 Z" fill="#239C80"/>
  <!-- Foreground peaks -->
  <path d="M 0 450 L 60 400 L 130 445 L 220 390 L 300 450 L 380 395 L 450 450 L 500 420 L 500 500 L 0 500 Z" fill="#1B3252"/>
</svg>
