<svg xmlns="http://www.w3.org/2000/svg" viewBox="0 0 500 500">
  <circle cx="250" cy="250" r="155" fill="#FAF7F2" stroke="#1B3252" stroke-width="4"/>
  <path d="M 250 180 L 295 213 L 278 265 L 222 265 L 205 213 Z" fill="#1B3252"/>
  <g fill="none" stroke="#1B3252" stroke-width="3">
    <line x1="250" y1="180" x2="250" y2="110"/>
    <line x1="295" y1="213" x2="362" y2="192"/>
    <line x1="278" y1="265" x2="328" y2="315"/>
    <line x1="222" y1="265" x2="172" y2="315"/>
    <line x1="205" y1="213" x2="138" y2="192"/>
    <path d="M 250 110 L 197 135 L 138 192"/>
    <path d="M 138 192 L 118 258 L 172 315"/>
    <path d="M 172 315 L 218 368 L 282 368 L 328 315"/>
    <path d="M 328 315 L 382 258 L 362 192"/>
    <path d="M 362 192 L 303 135 L 250 110"/>
  </g>
</svg>
