<svg xmlns="http://www.w3.org/2000/svg" viewBox="0 0 500 500">
  <!-- Buildings -->
  <g fill="#1B3252">
    <rect x="10" y="320" width="40" height="180"/>
    <rect x="55" y="280" width="30" height="220"/>
    <rect x="90" y="350" width="50" height="150"/>
    <rect x="145" y="260" width="35" height="240"/>
    <rect x="185" y="290" width="45" height="210"/>
    <rect x="235" y="240" width="40" height="260"/>
    <rect x="280" y="310" width="35" height="190"/>
    <rect x="320" y="270" width="50" height="230"/>
    <rect x="375" y="340" width="40" height="160"/>
    <rect x="420" y="300" width="35" height="200"/>
    <rect x="460" y="330" width="40" height="170"/>
  </g>
  <!-- Windows -->
  <g fill="#34C3A0">
    <rect x="20" y="340" width="5" height="5"/><rect x="35" y="340" width="5" height="5"/>
    <rect x="20" y="360" width="5" height="5"/><rect x="35" y="360" width="5" height="5"/>
    <rect x="20" y="390" width="5" height="5"/><rect x="35" y="390" width="5" height="5"/>
    <rect x="63" y="300" width="4" height="4"/><rect x="74" y="300" width="4" height="4"/>
    <rect x="63" y="320" width="4" height="4"/><rect x="74" y="320" width="4" height="4"/>
    <rect x="150" y="280" width="4" height="4"/><rect x="162" y="280" width="4" height="4"/><rect x="174" y="280" width="4" height="4"/>
    <rect x="150" y="300" width="4" height="4"/><rect x="162" y="300" width="4" height="4"/><rect x="174" y="300" width="4" height="4"/>
    <rect x="195" y="310" width="5" height="5"/><rect x="210" y="310" width="5" height="5"/><rect x="220" y="310" width="5" height="5"/>
    <rect x="240" y="260" width="5" height="5"/><rect x="255" y="260" width="5" height="5"/><rect x="267" y="260" width="5" height="5"/>
    <rect x="240" y="280" width="5" height="5"/><rect x="255" y="280" width="5" height="5"/><rect x="267" y="280" width="5" height="5"/>
    <rect x="325" y="290" width="5" height="5"/><rect x="340" y="290" width="5" height="5"/><rect x="355" y="290" width="5" height="5"/>
    <rect x="325" y="310" width="5" height="5"/><rect x="340" y="310" width="5" height="5"/><rect x="355" y="310" width="5" height="5"/>
    <rect x="425" y="320" width="4" height="4"/><rect x="438" y="320" width="4" height="4"/>
  </g>
  <!-- Ground -->
  <rect x="0" y="498" width="500" height="2" fill="#1B3252"/>
</svg>
