<svg xmlns="http://www.w3.org/2000/svg" viewBox="0 0 500 500">
  <path d="M 75 100 L 250 40 L 425 100 Z" fill="#B08A3E"/>
  <path d="M 85 100 L 250 55 L 415 100 Z" fill="#1B3252"/>
  <rect x="50" y="100" width="400" height="30" fill="#1B3252"/>
  <rect x="45" y="130" width="410" height="12" fill="#1B3252"/>
  <g fill="#1B3252">
    <rect x="75" y="145" width="60" height="15"/>
    <rect x="165" y="145" width="60" height="15"/>
    <rect x="275" y="145" width="60" height="15"/>
    <rect x="365" y="145" width="60" height="15"/>
  </g>
  <g fill="#1B3252">
    <rect x="85" y="160" width="40" height="250"/>
    <rect x="175" y="160" width="40" height="250"/>
    <rect x="285" y="160" width="40" height="250"/>
    <rect x="375" y="160" width="40" height="250"/>
  </g>
  <g stroke="#0E1F38" stroke-width="1.5">
    <line x1="93" y1="165" x2="93" y2="405"/><line x1="100" y1="165" x2="100" y2="405"/>
    <line x1="108" y1="165" x2="108" y2="405"/><line x1="116" y1="165" x2="116" y2="405"/>
    <line x1="183" y1="165" x2="183" y2="405"/><line x1="190" y1="165" x2="190" y2="405"/>
    <line x1="198" y1="165" x2="198" y2="405"/><line x1="206" y1="165" x2="206" y2="405"/>
    <line x1="293" y1="165" x2="293" y2="405"/><line x1="300" y1="165" x2="300" y2="405"/>
    <line x1="308" y1="165" x2="308" y2="405"/><line x1="316" y1="165" x2="316" y2="405"/>
    <line x1="383" y1="165" x2="383" y2="405"/><line x1="390" y1="165" x2="390" y2="405"/>
    <line x1="398" y1="165" x2="398" y2="405"/><line x1="406" y1="165" x2="406" y2="405"/>
  </g>
  <g fill="#1B3252">
    <rect x="75" y="410" width="60" height="15"/>
    <rect x="165" y="410" width="60" height="15"/>
    <rect x="275" y="410" width="60" height="15"/>
    <rect x="365" y="410" width="60" height="15"/>
  </g>
  <rect x="40" y="425" width="420" height="20" fill="#1B3252"/>
  <rect x="30" y="445" width="440" height="15" fill="#1B3252"/>
</svg>
