<svg xmlns="http://www.w3.org/2000/svg" viewBox="0 0 500 500">
  <rect x="105" y="180" width="12" height="240" fill="#B08A3E"/>
  <rect x="135" y="180" width="12" height="240" fill="#B08A3E"/>
  <rect x="165" y="180" width="12" height="240" fill="#B08A3E"/>
  <rect x="100" y="172" width="50" height="8" fill="#1B3252"/>
  <rect x="132" y="172" width="50" height="8" fill="#1B3252"/>
  <rect x="0" y="420" width="500" height="6" fill="#1B3252"/>
  <g transform="rotate(25 340 290)">
    <rect x="300" y="155" width="80" height="230" fill="#1B3252" rx="8"/>
    <rect x="320" y="70" width="40" height="95" fill="#B08A3E"/>
    <g stroke="#1B3252" stroke-width="1.5">
      <line x1="320" y1="90" x2="360" y2="90"/>
      <line x1="320" y1="108" x2="360" y2="108"/>
      <line x1="320" y1="126" x2="360" y2="126"/>
      <line x1="320" y1="144" x2="360" y2="144"/>
      <line x1="320" y1="162" x2="360" y2="162"/>
    </g>
    <g stroke="#0E1F38" stroke-width="1">
      <line x1="320" y1="180" x2="320" y2="380"/>
      <line x1="340" y1="180" x2="340" y2="380"/>
      <line x1="360" y1="180" x2="360" y2="380"/>
    </g>
  </g>
  <circle cx="400" cy="410" r="26" fill="#B08A3E"/>
  <path d="M 378 405 Q 400 400 422 405" fill="none" stroke="#FAF7F2" stroke-width="1.5"/>
  <path d="M 378 415 Q 400 420 422 415" fill="none" stroke="#FAF7F2" stroke-width="1.5"/>
</svg>
