<svg xmlns="http://www.w3.org/2000/svg" viewBox="0 0 500 500">
  <rect x="70" y="110" width="360" height="280" fill="#B08A3E"/>
  <rect x="80" y="120" width="340" height="260" fill="#FAF7F2"/>
  <rect x="80" y="180" width="340" height="12" fill="#B08A3E"/>
  <g stroke="#1B3252" stroke-width="3">
    <line x1="130" y1="130" x2="130" y2="370"/>
    <line x1="190" y1="130" x2="190" y2="370"/>
    <line x1="250" y1="130" x2="250" y2="370"/>
    <line x1="310" y1="130" x2="310" y2="370"/>
    <line x1="370" y1="130" x2="370" y2="370"/>
  </g>
  <g fill="#1B3252">
    <circle cx="130" cy="150" r="14"/>
    <circle cx="190" cy="150" r="14"/>
    <circle cx="250" cy="150" r="14"/>
    <circle cx="310" cy="165" r="14"/>
    <circle cx="370" cy="150" r="14"/>
  </g>
  <g fill="#34C3A0">
    <circle cx="130" cy="225" r="14"/><circle cx="130" cy="255" r="14"/><circle cx="130" cy="285" r="14"/><circle cx="130" cy="315" r="14"/>
    <circle cx="190" cy="225" r="14"/><circle cx="190" cy="255" r="14"/><circle cx="190" cy="285" r="14"/><circle cx="190" cy="345" r="14"/>
    <circle cx="250" cy="225" r="14"/><circle cx="250" cy="255" r="14"/><circle cx="250" cy="315" r="14"/><circle cx="250" cy="345" r="14"/>
    <circle cx="310" cy="225" r="14"/><circle cx="310" cy="285" r="14"/><circle cx="310" cy="315" r="14"/><circle cx="310" cy="345" r="14"/>
    <circle cx="370" cy="255" r="14"/><circle cx="370" cy="285" r="14"/><circle cx="370" cy="315" r="14"/><circle cx="370" cy="345" r="14"/>
  </g>
</svg>
