<svg xmlns="http://www.w3.org/2000/svg" viewBox="0 0 500 500">
  <g fill="none" stroke="#1B3252" stroke-width="1">
    <path d="M 180 130 L 320 130 A 120 120 0 0 1 320 370 L 180 370 A 120 120 0 0 1 180 130 Z"/>
    <path d="M 180 115 L 320 115 A 135 135 0 0 1 320 385 L 180 385 A 135 135 0 0 1 180 115 Z"/>
    <path d="M 180 100 L 320 100 A 150 150 0 0 1 320 400 L 180 400 A 150 150 0 0 1 180 100 Z"/>
    <path d="M 180 85 L 320 85 A 165 165 0 0 1 320 415 L 180 415 A 165 165 0 0 1 180 85 Z"/>
    <path d="M 180 70 L 320 70 A 180 180 0 0 1 320 430 L 180 430 A 180 180 0 0 1 180 70 Z"/>
    <path d="M 180 55 L 320 55 A 195 195 0 0 1 320 445 L 180 445 A 195 195 0 0 1 180 55 Z"/>
  </g>
  <rect x="178" y="55" width="4" height="60" fill="#34C3A0"/>
</svg>
