<svg xmlns="http://www.w3.org/2000/svg" viewBox="0 0 500 500">
  <g stroke="#1B3252" stroke-width="1.2">
    <!-- Horizontal lines with tick marks -->
    <line x1="30" y1="100" x2="470" y2="100"/>
    <g fill="none">
      <line x1="50" y1="95" x2="50" y2="110"/>
      <line x1="100" y1="95" x2="100" y2="110"/>
      <line x1="150" y1="95" x2="150" y2="110"/>
      <line x1="200" y1="95" x2="200" y2="110"/>
      <line x1="250" y1="95" x2="250" y2="115"/>
      <line x1="300" y1="95" x2="300" y2="110"/>
      <line x1="350" y1="95" x2="350" y2="110"/>
      <line x1="400" y1="95" x2="400" y2="110"/>
      <line x1="450" y1="95" x2="450" y2="110"/>
    </g>
    <line x1="30" y1="200" x2="470" y2="200"/>
    <g fill="none">
      <line x1="50" y1="195" x2="50" y2="210"/>
      <line x1="100" y1="195" x2="100" y2="210"/>
      <line x1="150" y1="195" x2="150" y2="210"/>
      <line x1="200" y1="195" x2="200" y2="210"/>
      <line x1="250" y1="195" x2="250" y2="215"/>
      <line x1="300" y1="195" x2="300" y2="210"/>
      <line x1="350" y1="195" x2="350" y2="210"/>
      <line x1="400" y1="195" x2="400" y2="210"/>
      <line x1="450" y1="195" x2="450" y2="210"/>
    </g>
    <line x1="30" y1="300" x2="470" y2="300"/>
    <g fill="none">
      <line x1="50" y1="295" x2="50" y2="310"/>
      <line x1="100" y1="295" x2="100" y2="310"/>
      <line x1="150" y1="295" x2="150" y2="310"/>
      <line x1="200" y1="295" x2="200" y2="310"/>
      <line x1="250" y1="295" x2="250" y2="315"/>
      <line x1="300" y1="295" x2="300" y2="310"/>
      <line x1="350" y1="295" x2="350" y2="310"/>
      <line x1="400" y1="295" x2="400" y2="310"/>
      <line x1="450" y1="295" x2="450" y2="310"/>
    </g>
    <line x1="30" y1="400" x2="470" y2="400"/>
    <g fill="none">
      <line x1="50" y1="395" x2="50" y2="410"/>
      <line x1="100" y1="395" x2="100" y2="410"/>
      <line x1="150" y1="395" x2="150" y2="410"/>
      <line x1="200" y1="395" x2="200" y2="410"/>
      <line x1="250" y1="395" x2="250" y2="415"/>
      <line x1="300" y1="395" x2="300" y2="410"/>
      <line x1="350" y1="395" x2="350" y2="410"/>
      <line x1="400" y1="395" x2="400" y2="410"/>
      <line x1="450" y1="395" x2="450" y2="410"/>
    </g>
  </g>
  <!-- Center accent marker -->
  <circle cx="250" cy="250" r="8" fill="#34C3A0"/>
</svg>
