<svg xmlns="http://www.w3.org/2000/svg" viewBox="0 0 500 500">
  <g fill="none" stroke="#1B3252" stroke-width="1">
    <!-- Primary pressure system -->
    <path d="M 160 200 Q 200 180 250 190 Q 300 200 340 220 Q 370 260 360 300 Q 340 340 300 350 Q 250 360 200 340 Q 150 320 140 280 Q 130 240 160 200 Z"/>
    <path d="M 180 220 Q 220 200 260 210 Q 300 220 325 240 Q 345 270 335 300 Q 320 325 290 335 Q 250 345 215 330 Q 180 315 170 285 Q 160 255 180 220 Z"/>
    <path d="M 200 240 Q 230 225 260 235 Q 290 245 305 260 Q 320 280 310 300 Q 300 320 275 325 Q 250 330 225 325 Q 200 315 195 295 Q 190 270 200 240 Z"/>
    <path d="M 220 255 Q 245 245 265 255 Q 285 265 290 280 Q 290 300 275 305 Q 250 315 235 305 Q 215 295 215 280 Q 215 265 220 255 Z"/>
    <!-- Secondary system -->
    <path d="M 60 380 Q 100 365 140 380 Q 165 400 158 425 Q 135 445 95 440 Q 55 425 55 405 Q 55 385 60 380 Z"/>
    <path d="M 80 395 Q 115 388 135 398 Q 150 412 142 425 Q 120 435 95 428 Q 75 418 75 408 Q 75 398 80 395 Z"/>
    <!-- Tertiary -->
    <path d="M 400 400 Q 430 390 455 400 Q 470 420 460 440 Q 435 450 410 440 Q 390 425 400 400 Z"/>
  </g>
  <!-- Pressure centers -->
  <circle cx="253" cy="285" r="5" fill="#B08A3E"/>
  <circle cx="107" cy="412" r="4" fill="#B08A3E"/>
  <circle cx="430" cy="420" r="4" fill="#B08A3E"/>
</svg>
