<svg xmlns="http://www.w3.org/2000/svg" viewBox="0 0 500 500">
  <g fill="none" stroke="#1B3252" stroke-width="1.5">
    <path d="M 80 180 L 250 150 L 420 180 L 420 380 L 250 350 L 80 380 Z"/>
    <line x1="250" y1="150" x2="250" y2="350"/>
    <line x1="100" y1="210" x2="235" y2="195"/>
    <line x1="100" y1="230" x2="230" y2="220"/>
    <line x1="100" y1="250" x2="235" y2="240"/>
    <line x1="100" y1="270" x2="225" y2="265"/>
    <line x1="100" y1="290" x2="235" y2="285"/>
    <line x1="100" y1="310" x2="230" y2="305"/>
    <line x1="100" y1="330" x2="235" y2="328"/>
    <line x1="265" y1="195" x2="400" y2="210"/>
    <line x1="270" y1="220" x2="400" y2="230"/>
    <line x1="265" y1="240" x2="400" y2="250"/>
    <line x1="275" y1="265" x2="400" y2="270"/>
    <line x1="265" y1="285" x2="400" y2="290"/>
    <line x1="270" y1="305" x2="400" y2="310"/>
    <line x1="265" y1="328" x2="400" y2="330"/>
  </g>
  <path d="M 310 150 L 315 215 L 320 210 L 325 215 L 320 150" fill="#34C3A0"/>
</svg>
