<svg xmlns="http://www.w3.org/2000/svg" viewBox="0 0 500 500">
  <g stroke="#1B3252" stroke-width="1.5" fill="none" stroke-linecap="round">
    <path d="M 0 60 Q 125 40 250 60 Q 375 80 500 60"/>
    <path d="M 0 100 Q 125 80 250 100 Q 375 120 500 100"/>
    <path d="M 0 140 Q 125 120 250 140 Q 375 160 500 140"/>
    <path d="M 0 180 Q 125 160 250 180 Q 375 200 500 180"/>
    <path d="M 0 220 Q 125 200 250 220 Q 375 240 500 220"/>
    <path d="M 0 260 Q 125 240 250 260 Q 375 280 500 260"/>
    <path d="M 0 300 Q 125 280 250 300 Q 375 320 500 300"/>
    <path d="M 0 340 Q 125 320 250 340 Q 375 360 500 340"/>
    <path d="M 0 380 Q 125 360 250 380 Q 375 400 500 380"/>
    <path d="M 0 420 Q 125 400 250 420 Q 375 440 500 420"/>
    <path d="M 0 460 Q 125 440 250 460 Q 375 480 500 460"/>
  </g>
</svg>
