<svg xmlns="http://www.w3.org/2000/svg" viewBox="0 0 500 500">
  <g fill="none" stroke="#1B3252" stroke-width="1.2" stroke-linecap="round">
    <line x1="30" y1="80" x2="100" y2="80"/><line x1="30" y1="130" x2="100" y2="130"/>
    <line x1="100" y1="80" x2="100" y2="130"/><line x1="100" y1="105" x2="160" y2="105"/>
    <line x1="30" y1="180" x2="100" y2="180"/><line x1="30" y1="230" x2="100" y2="230"/>
    <line x1="100" y1="180" x2="100" y2="230"/><line x1="100" y1="205" x2="160" y2="205"/>
    <line x1="30" y1="280" x2="100" y2="280"/><line x1="30" y1="330" x2="100" y2="330"/>
    <line x1="100" y1="280" x2="100" y2="330"/><line x1="100" y1="305" x2="160" y2="305"/>
    <line x1="30" y1="380" x2="100" y2="380"/><line x1="30" y1="430" x2="100" y2="430"/>
    <line x1="100" y1="380" x2="100" y2="430"/><line x1="100" y1="405" x2="160" y2="405"/>
    <line x1="160" y1="105" x2="160" y2="205"/><line x1="160" y1="155" x2="220" y2="155"/>
    <line x1="160" y1="305" x2="160" y2="405"/><line x1="160" y1="355" x2="220" y2="355"/>
    <line x1="220" y1="155" x2="220" y2="355"/><line x1="220" y1="255" x2="250" y2="255"/>
    <line x1="470" y1="80" x2="400" y2="80"/><line x1="470" y1="130" x2="400" y2="130"/>
    <line x1="400" y1="80" x2="400" y2="130"/><line x1="400" y1="105" x2="340" y2="105"/>
    <line x1="470" y1="180" x2="400" y2="180"/><line x1="470" y1="230" x2="400" y2="230"/>
    <line x1="400" y1="180" x2="400" y2="230"/><line x1="400" y1="205" x2="340" y2="205"/>
    <line x1="470" y1="280" x2="400" y2="280"/><line x1="470" y1="330" x2="400" y2="330"/>
    <line x1="400" y1="280" x2="400" y2="330"/><line x1="400" y1="305" x2="340" y2="305"/>
    <line x1="470" y1="380" x2="400" y2="380"/><line x1="470" y1="430" x2="400" y2="430"/>
    <line x1="400" y1="380" x2="400" y2="430"/><line x1="400" y1="405" x2="340" y2="405"/>
    <line x1="340" y1="105" x2="340" y2="205"/><line x1="340" y1="155" x2="280" y2="155"/>
    <line x1="340" y1="305" x2="340" y2="405"/><line x1="340" y1="355" x2="280" y2="355"/>
    <line x1="280" y1="155" x2="280" y2="355"/><line x1="280" y1="255" x2="250" y2="255"/>
  </g>
  <circle cx="250" cy="255" r="12" fill="#B08A3E"/>
</svg>
