<svg xmlns="http://www.w3.org/2000/svg" viewBox="0 0 500 500">
  <g fill="#1B3252">
    <path d="M 60 80 L 66 68 L 72 80 L 66 92 Z"/>
    <path d="M 120 150 L 126 135 L 132 150 L 126 165 Z"/>
    <path d="M 180 60 L 187 48 L 194 60 L 187 72 Z"/>
    <path d="M 260 100 L 266 85 L 272 100 L 266 115 Z"/>
    <path d="M 320 180 L 326 165 L 332 180 L 326 195 Z"/>
    <path d="M 410 80 L 417 65 L 424 80 L 417 95 Z"/>
    <path d="M 440 160 L 446 145 L 452 160 L 446 175 Z"/>
    <path d="M 80 260 L 86 245 L 92 260 L 86 275 Z"/>
    <path d="M 170 310 L 177 295 L 184 310 L 177 325 Z"/>
    <path d="M 280 280 L 286 265 L 292 280 L 286 295 Z"/>
    <path d="M 380 340 L 386 325 L 392 340 L 386 355 Z"/>
    <path d="M 60 400 L 66 385 L 72 400 L 66 415 Z"/>
    <path d="M 180 440 L 186 425 L 192 440 L 186 455 Z"/>
    <path d="M 290 410 L 296 395 L 302 410 L 296 425 Z"/>
    <path d="M 410 450 L 416 435 L 422 450 L 416 465 Z"/>
    <path d="M 230 220 L 234 210 L 238 220 L 234 230 Z"/>
    <path d="M 350 260 L 354 250 L 358 260 L 354 270 Z"/>
    <path d="M 130 380 L 134 370 L 138 380 L 134 390 Z"/>
  </g>
  <!-- Teal accent star -->
  <path d="M 250 250 L 262 222 L 275 250 L 262 278 Z" fill="#34C3A0"/>
  <path d="M 250 250 L 222 262 L 250 275 L 278 262 Z" fill="#239C80"/>
</svg>
