<svg xmlns="http://www.w3.org/2000/svg" viewBox="0 0 500 500">
  <g fill="none" stroke="#1B3252" stroke-width="1.5">
    <path d="M 100 130 Q 150 100 190 130 Q 210 170 170 200 Q 120 210 95 180 Q 80 150 100 130 Z"/>
    <path d="M 220 90 Q 260 70 300 95 Q 320 130 285 155 Q 240 160 215 130 Q 205 105 220 90 Z"/>
    <path d="M 340 110 Q 400 90 430 130 Q 440 175 395 200 Q 355 195 335 160 Q 325 125 340 110 Z"/>
    <path d="M 90 250 Q 140 230 170 265 Q 180 310 140 335 Q 95 335 75 305 Q 65 275 90 250 Z"/>
    <path d="M 210 230 Q 265 210 300 250 Q 310 290 265 320 Q 220 310 200 275 Q 195 250 210 230 Z"/>
    <path d="M 350 260 Q 410 240 440 280 Q 445 320 405 345 Q 360 345 340 305 Q 335 275 350 260 Z"/>
    <path d="M 110 380 Q 160 365 195 395 Q 205 430 170 455 Q 125 455 100 425 Q 90 400 110 380 Z"/>
    <path d="M 240 370 Q 290 355 325 385 Q 335 420 295 445 Q 255 445 230 415 Q 220 390 240 370 Z"/>
    <path d="M 365 390 Q 420 370 445 410 Q 450 440 415 460 Q 380 460 360 430 Q 355 405 365 390 Z"/>
  </g>
  <!-- Accent fill in one blob -->
  <path d="M 210 230 Q 265 210 300 250 Q 310 290 265 320 Q 220 310 200 275 Q 195 250 210 230 Z" fill="#34C3A0" opacity="0.35"/>
</svg>
