<svg xmlns="http://www.w3.org/2000/svg" viewBox="0 0 500 500">
  <g>
    <circle cx="110" cy="90" r="14" fill="none" stroke="#1B3252" stroke-width="1.5"/>
    <circle cx="175" cy="90" r="14" fill="#1B3252"/>
    <circle cx="240" cy="90" r="14" fill="none" stroke="#1B3252" stroke-width="1.5"/>
    <circle cx="305" cy="90" r="14" fill="none" stroke="#1B3252" stroke-width="1.5"/>
    <circle cx="110" cy="150" r="14" fill="none" stroke="#1B3252" stroke-width="1.5"/>
    <circle cx="175" cy="150" r="14" fill="none" stroke="#1B3252" stroke-width="1.5"/>
    <circle cx="240" cy="150" r="14" fill="#34C3A0"/>
    <circle cx="305" cy="150" r="14" fill="none" stroke="#1B3252" stroke-width="1.5"/>
    <circle cx="110" cy="210" r="14" fill="#1B3252"/>
    <circle cx="175" cy="210" r="14" fill="none" stroke="#1B3252" stroke-width="1.5"/>
    <circle cx="240" cy="210" r="14" fill="none" stroke="#1B3252" stroke-width="1.5"/>
    <circle cx="305" cy="210" r="14" fill="none" stroke="#1B3252" stroke-width="1.5"/>
    <circle cx="110" cy="270" r="14" fill="none" stroke="#1B3252" stroke-width="1.5"/>
    <circle cx="175" cy="270" r="14" fill="none" stroke="#1B3252" stroke-width="1.5"/>
    <circle cx="240" cy="270" r="14" fill="none" stroke="#1B3252" stroke-width="1.5"/>
    <circle cx="305" cy="270" r="14" fill="#1B3252"/>
    <circle cx="110" cy="330" r="14" fill="none" stroke="#1B3252" stroke-width="1.5"/>
    <circle cx="175" cy="330" r="14" fill="#1B3252"/>
    <circle cx="240" cy="330" r="14" fill="none" stroke="#1B3252" stroke-width="1.5"/>
    <circle cx="305" cy="330" r="14" fill="none" stroke="#1B3252" stroke-width="1.5"/>
    <circle cx="110" cy="390" r="14" fill="none" stroke="#1B3252" stroke-width="1.5"/>
    <circle cx="175" cy="390" r="14" fill="none" stroke="#1B3252" stroke-width="1.5"/>
    <circle cx="240" cy="390" r="14" fill="#1B3252"/>
    <circle cx="305" cy="390" r="14" fill="none" stroke="#1B3252" stroke-width="1.5"/>
    <g fill="#1B3252" font-family="Helvetica, Arial, sans-serif" font-weight="800" font-size="16">
      <text x="60" y="95" text-anchor="middle">1</text>
      <text x="60" y="155" text-anchor="middle">2</text>
      <text x="60" y="215" text-anchor="middle">3</text>
      <text x="60" y="275" text-anchor="middle">4</text>
      <text x="60" y="335" text-anchor="middle">5</text>
      <text x="60" y="395" text-anchor="middle">6</text>
    </g>
    <g fill="#1B3252" font-family="Helvetica, Arial Black, sans-serif" font-weight="900" font-size="18">
      <text x="110" y="55" text-anchor="middle">A</text>
      <text x="175" y="55" text-anchor="middle">B</text>
      <text x="240" y="55" text-anchor="middle">C</text>
      <text x="305" y="55" text-anchor="middle">D</text>
    </g>
  </g>
  <rect x="370" y="150" width="100" height="80" fill="none" stroke="#1B3252" stroke-width="2" rx="4"/>
  <text x="420" y="185" text-anchor="middle" fill="#1B3252" font-family="Helvetica, Arial, sans-serif" font-weight="700" font-size="11">SCORE</text>
  <text x="420" y="220" text-anchor="middle" fill="#34C3A0" font-family="Helvetica, Arial Black, sans-serif" font-weight="900" font-size="28">5/6</text>
</svg>
