<svg xmlns="http://www.w3.org/2000/svg" viewBox="0 0 500 500">
  <g stroke="#1B3252" stroke-width="1" opacity="0.7" stroke-linecap="round">
    <line x1="120" y1="100" x2="250" y2="180"/>
    <line x1="400" y1="110" x2="250" y2="180"/>
    <line x1="250" y1="180" x2="150" y2="280"/>
    <line x1="250" y1="180" x2="370" y2="280"/>
    <line x1="150" y1="280" x2="250" y2="370"/>
    <line x1="370" y1="280" x2="250" y2="370"/>
    <line x1="250" y1="180" x2="250" y2="370"/>
    <line x1="120" y1="100" x2="400" y2="110"/>
    <line x1="150" y1="280" x2="370" y2="280"/>
    <line x1="80" y1="420" x2="250" y2="370"/>
    <line x1="420" y1="420" x2="250" y2="370"/>
    <line x1="120" y1="100" x2="150" y2="280"/>
    <line x1="400" y1="110" x2="370" y2="280"/>
  </g>
  <g fill="#1B3252">
    <circle cx="120" cy="100" r="7"/>
    <circle cx="400" cy="110" r="7"/>
    <circle cx="150" cy="280" r="7"/>
    <circle cx="370" cy="280" r="7"/>
    <circle cx="250" cy="370" r="8"/>
    <circle cx="80" cy="420" r="5"/>
    <circle cx="420" cy="420" r="5"/>
  </g>
  <!-- Center (bigger, teal) -->
  <circle cx="250" cy="180" r="12" fill="#239C80"/>
</svg>
