<svg xmlns="http://www.w3.org/2000/svg" viewBox="0 0 500 500">
  <path d="M 250 250 L 250 100 A 150 150 0 0 1 400 250 Z" fill="#1B3252"/>
  <path d="M 250 250 L 400 250 A 150 150 0 0 1 250 400 Z" fill="#34C3A0"/>
  <path d="M 250 250 L 250 400 A 150 150 0 0 1 100 250 Z" fill="#B08A3E"/>
  <path d="M 250 250 L 100 250 A 150 150 0 0 1 250 100 Z" fill="#239C80"/>
  <circle cx="250" cy="250" r="150" fill="none" stroke="#1B3252" stroke-width="2"/>
  <g stroke="#FAF7F2" stroke-width="2">
    <line x1="250" y1="100" x2="250" y2="250"/>
    <line x1="400" y1="250" x2="250" y2="250"/>
    <line x1="250" y1="400" x2="250" y2="250"/>
    <line x1="100" y1="250" x2="250" y2="250"/>
  </g>
  <circle cx="250" cy="250" r="22" fill="#FAF7F2" stroke="#1B3252" stroke-width="2"/>
  <g fill="#1B3252" font-family="Helvetica, Arial Black, sans-serif" font-weight="800" font-size="16">
    <text x="325" y="180" text-anchor="middle" fill="#FAF7F2">25%</text>
    <text x="325" y="320" text-anchor="middle">25%</text>
    <text x="175" y="320" text-anchor="middle" fill="#FAF7F2">25%</text>
    <text x="175" y="180" text-anchor="middle" fill="#FAF7F2">25%</text>
  </g>
</svg>
