<svg xmlns="http://www.w3.org/2000/svg" viewBox="0 0 500 500">
  <g fill="none" stroke="#1B3252" stroke-width="1.5">
    <rect x="60" y="100" width="380" height="300"/>
    <line x1="60" y1="140" x2="440" y2="140"/>
    <line x1="180" y1="100" x2="180" y2="400"/>
    <line x1="60" y1="200" x2="440" y2="200"/>
    <line x1="60" y1="260" x2="440" y2="260"/>
    <line x1="60" y1="320" x2="440" y2="320"/>
    <line x1="60" y1="380" x2="440" y2="380"/>
    <line x1="270" y1="140" x2="270" y2="400"/>
    <line x1="355" y1="140" x2="355" y2="400"/>
  </g>
  <g fill="#1B3252" font-family="Helvetica, Arial, sans-serif" font-weight="700" font-size="14">
    <text x="120" y="127" text-anchor="middle">TEAM</text>
    <text x="225" y="127" text-anchor="middle">1</text>
    <text x="312" y="127" text-anchor="middle">2</text>
    <text x="397" y="127" text-anchor="middle">T</text>
  </g>
  <g fill="#1B3252" font-family="Helvetica, Arial Black, sans-serif" font-weight="800" font-size="20">
    <text x="120" y="180" text-anchor="middle">A</text>
    <text x="225" y="180" text-anchor="middle">21</text>
    <text x="312" y="180" text-anchor="middle">18</text>
    <text x="397" y="180" text-anchor="middle" fill="#34C3A0">39</text>
    <text x="120" y="240" text-anchor="middle">B</text>
    <text x="225" y="240" text-anchor="middle">14</text>
    <text x="312" y="240" text-anchor="middle">22</text>
    <text x="397" y="240" text-anchor="middle">36</text>
    <text x="120" y="300" text-anchor="middle">C</text>
    <text x="225" y="300" text-anchor="middle">17</text>
    <text x="312" y="300" text-anchor="middle">15</text>
    <text x="397" y="300" text-anchor="middle">32</text>
    <text x="120" y="360" text-anchor="middle">D</text>
    <text x="225" y="360" text-anchor="middle">9</text>
    <text x="312" y="360" text-anchor="middle">12</text>
    <text x="397" y="360" text-anchor="middle">21</text>
  </g>
</svg>
