<svg xmlns="http://www.w3.org/2000/svg" viewBox="0 0 500 500">
  <g stroke="#1B3252" stroke-width="1.5" fill="none">
    <line x1="70" y1="60" x2="70" y2="430"/>
    <line x1="70" y1="430" x2="450" y2="430"/>
  </g>
  <g stroke="#1B3252" stroke-width="0.5" opacity="0.3">
    <line x1="70" y1="370" x2="450" y2="370"/>
    <line x1="70" y1="310" x2="450" y2="310"/>
    <line x1="70" y1="250" x2="450" y2="250"/>
    <line x1="70" y1="190" x2="450" y2="190"/>
    <line x1="70" y1="130" x2="450" y2="130"/>
    <line x1="135" y1="60" x2="135" y2="430"/>
    <line x1="200" y1="60" x2="200" y2="430"/>
    <line x1="265" y1="60" x2="265" y2="430"/>
    <line x1="330" y1="60" x2="330" y2="430"/>
    <line x1="395" y1="60" x2="395" y2="430"/>
  </g>
  <polyline points="90,400 135,375 200,325 265,290 330,215 395,150 440,85" fill="none" stroke="#34C3A0" stroke-width="2.5"/>
  <g fill="#1B3252">
    <circle cx="90" cy="400" r="5"/>
    <circle cx="135" cy="375" r="5"/>
    <circle cx="200" cy="325" r="5"/>
    <circle cx="265" cy="290" r="5"/>
    <circle cx="330" cy="215" r="5"/>
    <circle cx="395" cy="150" r="5"/>
    <circle cx="440" cy="85" r="5"/>
  </g>
</svg>
