<svg xmlns="http://www.w3.org/2000/svg" viewBox="0 0 500 500">
  <g fill="none" stroke="#1B3252" stroke-width="1.5" stroke-linecap="round">
    <path d="M 0 80 Q 62.5 40 125 80 T 250 80 T 375 80 T 500 80"/>
    <path d="M 0 140 Q 62.5 100 125 140 T 250 140 T 375 140 T 500 140"/>
    <path d="M 0 200 Q 62.5 160 125 200 T 250 200 T 375 200 T 500 200"/>
    <path d="M 0 260 Q 62.5 220 125 260 T 250 260 T 375 260 T 500 260"/>
    <path d="M 0 320 Q 62.5 280 125 320 T 250 320 T 375 320 T 500 320"/>
    <path d="M 0 380 Q 62.5 340 125 380 T 250 380 T 375 380 T 500 380"/>
    <path d="M 0 440 Q 62.5 400 125 440 T 250 440 T 375 440 T 500 440"/>
  </g>
  <!-- Accent: one teal wave -->
  <path d="M 0 260 Q 62.5 220 125 260 T 250 260 T 375 260 T 500 260" stroke="#34C3A0" stroke-width="2.5" fill="none"/>
</svg>
