<svg xmlns="http://www.w3.org/2000/svg" viewBox="0 0 500 500">
  <g fill="none" stroke="#1B3252" stroke-width="1.2" stroke-linecap="round">
    <path d="M 170 100 Q 230 95 280 110 Q 330 120 360 122"/>
    <path d="M 130 130 Q 220 120 290 140 Q 360 155 400 152"/>
    <path d="M 100 160 Q 200 145 290 165 Q 380 180 430 175"/>
    <path d="M 80 190 Q 180 170 280 190 Q 380 210 440 200"/>
    <path d="M 60 220 Q 160 195 270 218 Q 380 240 450 225"/>
    <path d="M 50 250 Q 150 230 250 250 Q 350 270 450 250"/>
    <path d="M 50 280 Q 150 255 250 275 Q 350 295 450 280"/>
    <path d="M 70 310 Q 170 285 270 310 Q 370 330 470 315"/>
    <path d="M 60 340 Q 160 315 270 335 Q 370 355 450 345"/>
    <path d="M 70 370 Q 170 345 280 365 Q 380 385 440 378"/>
    <path d="M 90 400 Q 190 385 280 400 Q 360 410 420 408"/>
  </g>
  <g fill="none" stroke="#B08A3E" stroke-width="1.4">
    <path d="M 250 130 L 258 148 L 243 148 Z"/>
  </g>
</svg>
